<?xml version="1.0" encoding="utf-8"?>
<!-- Generator: Adobe Illustrator 21.0.0, SVG Export Plug-In . SVG Version: 6.00 Build 0)  -->
<svg version="1.1" id="Layer_1" xmlns="http://www.w3.org/2000/svg" xmlns:xlink="http://www.w3.org/1999/xlink" x="0px" y="0px"
	 viewBox="0 0 576 512" style="enable-background:new 0 0 576 512;" xml:space="preserve">
<style type="text/css">
	.st0{fill:#0F0E0E;}
	.st1{fill:#FFFFFF;}
</style>
<path class="st0" d="M495.6,355.9H244c-6.6,0-12-5.4-12-12v-144c0-6.6,5.4-12,12-12h251.6c6.6,0,12,5.4,12,12v144
	C507.6,350.5,502.2,355.9,495.6,355.9z"/>
<path d="M173.6,330.9h42.2c3.9,0,7-6.2,7-13.9v-84.1c0-7.7-3.1-13.9-7-13.9h-42.2c-3.9,0-7,6.2-7,13.9V317
	C166.6,324.6,169.7,330.9,173.6,330.9L173.6,330.9z"/>
<path d="M351.8,153.4v69c0,6.3,8.7,11.4,19.4,11.4h117c10.7,0,19.4-5.1,19.4-11.4v-69c0-6.3-8.7-11.4-19.4-11.4h-117
	C360.5,142,351.8,147.1,351.8,153.4L351.8,153.4z"/>
<g>
	<path d="M127.1,368.3l33.2-45.8v-95.3l-33.2-45.7c-6.4-8.8-15.3,0.2-15.3,15.6v155.6C111.8,368.1,120.6,377.2,127.1,368.3z"/>
	<ellipse cx="121.2" cy="274.7" rx="39" ry="90.7"/>
</g>
<path d="M455.8,148.5v39.4c0,3.6,4.3,6.5,9.7,6.5H524c5.4,0,9.7-2.9,9.7-6.5v-39.4c0-3.6-4.3-6.5-9.7-6.5h-58.5
	C460.2,142,455.8,144.9,455.8,148.5L455.8,148.5z"/>
<path d="M175.4,156.1v-28.2c0-2.6-4.2-4.7-9.3-4.7h-56.2c-5.1,0-9.3,2.1-9.3,4.7v28.2c0,2.6,4.2,4.7,9.3,4.7h56.2
	C171.3,160.7,175.4,158.7,175.4,156.1L175.4,156.1z"/>
<path d="M358,151.4H193.4c-5.2,0-9.4-4.2-9.4-9.4l0,0c0-5.2,4.2-9.4,9.4-9.4H358c5.2,0,9.4,4.2,9.4,9.4l0,0
	C367.3,147.1,363.1,151.4,358,151.4z"/>
<path d="M183.2,160.1h13.7c1.3,0,2.3-2,2.3-4.5v-27.3c0-2.5-1-4.5-2.3-4.5h-13.7c-1.3,0-2.3,2-2.3,4.5v27.3
	C180.9,158.1,181.9,160.1,183.2,160.1L183.2,160.1z"/>
<path class="st1" d="M469.7,307.1H326.2c-6.6,0-12-5.4-12-12v-69.4c0-6.6,5.4-12,12-12h143.5c6.6,0,12,5.4,12,12v69.4
	C481.7,301.7,476.3,307.1,469.7,307.1z"/>
<path d="M463.8,244.4h-133c-4.9,0-9-4-9-9l0,0c0-4.9,4-9,9-9h133c4.9,0,9,4,9,9l0,0C472.8,240.4,468.7,244.4,463.8,244.4z"/>
<path class="st1" d="M222.7,345.7v39.4c0,3.6,4.3,6.5,9.7,6.5H291c5.4,0,9.7-2.9,9.7-6.5v-39.4c0-3.6-4.3-6.5-9.7-6.5h-58.5
	C227.1,339.2,222.7,342.1,222.7,345.7L222.7,345.7z"/>
</svg>
